<svg width="424.002" height="98.9" viewBox="0 0 424.002 98.9" xmlns="http://www.w3.org/2000/svg"><g id="svgGroup" stroke-linecap="round" fill-rule="evenodd" font-size="9pt" stroke="#000000" stroke-width="0.25mm" fill="#000000" style="stroke:#000000;stroke-width:0.25mm;fill:#000000"><path d="M 37.1 71.9 Q 29.6 71.9 22.9 69.55 Q 16.2 67.2 11.05 62.8 Q 5.9 58.4 2.95 52.25 Q 0 46.1 0 38.6 Q 0 31.6 2.9 25.4 Q 5.8 19.2 11.1 14.4 Q 16.4 9.6 23.75 6.85 Q 31.1 4.1 39.9 4.1 Q 43.3 4.1 46.35 4.55 Q 49.4 5 52.3 5.65 Q 55.2 6.3 58 7.3 Q 59.1 7.7 59.75 8.4 Q 60.4 9.1 60.5 10.3 Q 60.9 13.3 61.1 16.25 Q 61.3 19.2 61.3 22.1 Q 61.4 23.1 60.6 23.55 Q 59.8 24 58.9 23.65 Q 58 23.3 57.6 22.2 Q 56.8 19.4 55.75 16.95 Q 54.7 14.5 52.6 12.8 Q 50.3 10.9 46.8 9.75 Q 43.3 8.6 38.6 8.6 Q 33.2 8.6 28.8 10.8 Q 24.4 13 21.25 16.9 Q 18.1 20.8 16.4 25.7 Q 14.7 30.6 14.7 36 Q 14.7 42.4 16.25 48.1 Q 17.8 53.8 20.95 58.15 Q 24.1 62.5 28.6 64.95 Q 33.1 67.4 38.9 67.4 Q 46.3 67.4 50.9 64.2 Q 55.5 61 58.7 54.7 Q 59.5 53.1 60.9 53.15 Q 62.3 53.2 62.3 54.8 Q 62.3 56 62 57.8 Q 61.7 59.6 61.15 61.65 Q 60.6 63.7 59.9 65.7 Q 59.5 66.9 58.9 67.5 Q 58.3 68.1 57.1 68.6 Q 53.3 70.2 48.15 71.05 Q 43 71.9 37.1 71.9 Z M 379.4 63.7 L 379.4 15 Q 379.4 12.3 378.65 10.3 Q 377.9 8.3 375.3 7.8 Q 374.3 7.6 374.3 6.3 Q 374.3 5.2 375.2 4.9 Q 377.2 4.4 379.85 3.55 Q 382.5 2.7 385.05 1.75 Q 387.6 0.8 389.2 0.3 Q 389.9 0 390.2 0 Q 390.8 0 391 0.3 Q 391.2 0.6 391.2 1 Q 391.2 1.6 391 2.6 Q 390.8 3.6 390.65 5.35 Q 390.5 7.1 390.5 10.1 L 390.5 31.4 Q 390.5 32.6 390.6 33.35 Q 390.7 34.1 391.1 34.5 Q 392.6 33.3 394.8 31.75 Q 397 30.2 399.8 29.05 Q 402.6 27.9 405.9 27.9 Q 411.1 27.9 414.55 31.7 Q 418 35.5 418 41.9 L 418 63.4 Q 418 65.5 419.2 66.3 Q 420.4 67.1 421.8 67.6 Q 422.9 68 423.45 68.4 Q 424 68.8 424 69.5 Q 424 70.8 421.9 70.8 Q 419.6 70.8 418.25 70.65 Q 416.9 70.5 415.7 70.4 Q 414.5 70.3 412.4 70.3 Q 410.4 70.3 409.25 70.4 Q 408.1 70.5 406.9 70.65 Q 405.7 70.8 403.4 70.8 Q 401.2 70.8 401.2 69.4 Q 401.2 68.7 401.8 68.3 Q 402.4 67.9 403.3 67.6 Q 404.7 67.2 405.8 66.3 Q 406.9 65.4 406.9 63.3 L 406.9 43.4 Q 406.9 41.1 405.8 39.25 Q 404.7 37.4 403.05 36.3 Q 401.4 35.2 399.5 35.2 Q 397.9 35.2 395.9 35.7 Q 393.9 36.2 392.3 37.4 Q 391.2 38.2 390.85 39.15 Q 390.5 40.1 390.5 42.2 L 390.5 63.6 Q 390.6 65.6 391.65 66.35 Q 392.7 67.1 394 67.6 Q 395 67.9 395.55 68.3 Q 396.1 68.7 396.1 69.4 Q 396.1 70.8 394.3 70.8 Q 392.3 70.8 390.8 70.65 Q 389.3 70.5 387.95 70.4 Q 386.6 70.3 384.8 70.3 Q 383.1 70.3 381.65 70.4 Q 380.2 70.5 378.65 70.65 Q 377.1 70.8 375.1 70.8 Q 373.1 70.8 373.1 69.5 Q 373.1 68.4 375.4 67.6 Q 376.9 67.1 378.15 66.45 Q 379.4 65.8 379.4 63.7 Z M 87.1 65.9 L 75 37.4 Q 74.2 35.4 73.05 33.9 Q 71.9 32.4 70.2 31.9 Q 69.3 31.5 68.75 31.1 Q 68.2 30.7 68.2 29.9 Q 68.2 29.1 69 28.95 Q 69.8 28.8 70.4 28.8 Q 72.7 28.8 74.1 28.9 Q 75.5 29 76.7 29.1 Q 77.9 29.2 79.3 29.2 Q 81.4 29.2 82.7 29.1 Q 84 29 85.45 28.9 Q 86.9 28.8 89.1 28.8 Q 89.8 28.8 90.6 29.05 Q 91.4 29.3 91.4 30.1 Q 91.4 30.9 90.5 31.35 Q 89.6 31.8 88.8 32.1 Q 87.8 32.4 87.2 33.25 Q 86.6 34.1 86.6 35.7 Q 86.6 36.4 86.9 37.45 Q 87.2 38.5 87.6 39.7 L 94.5 56.4 Q 94.6 56.8 94.9 56.8 Q 95 56.8 95.2 56.4 L 100.9 40.1 Q 101.2 39.4 101.45 38.25 Q 101.7 37.1 101.7 36.3 Q 101.7 34.5 100.85 33.55 Q 100 32.6 99 32.2 L 97.3 31.35 Q 96.4 30.9 96.4 30.1 Q 96.4 29.3 97.25 29.05 Q 98.1 28.8 98.7 28.8 Q 100.9 28.8 102.4 29 Q 103.9 29.2 105.9 29.2 Q 107.2 29.2 108.05 29.1 Q 108.9 29 109.9 28.9 Q 110.9 28.8 112.4 28.8 Q 113 28.8 113.85 28.95 Q 114.7 29.1 114.7 29.9 Q 114.7 30.7 114.15 31.1 Q 113.6 31.5 112.7 31.9 Q 111 32.4 109.4 34.15 Q 107.8 35.9 106.8 38.2 L 92.4 73 Q 91.8 74.4 90.8 76.75 Q 89.8 79.1 88.65 81.9 Q 87.5 84.7 86.2 87.7 Q 84.9 90.7 83.7 93.6 Q 82.6 96.2 80.35 97.55 Q 78.1 98.9 75.3 98.9 Q 72.9 98.9 70.8 97.35 Q 68.7 95.8 68.7 93.3 Q 68.7 91.4 69.65 89.7 Q 70.6 88 72.5 88 Q 73.9 88 75.35 88.5 Q 76.8 89 78.1 88.9 Q 79.3 88.8 79.85 88.35 Q 80.4 87.9 81.1 86.7 Q 81.9 85.3 82.85 83.65 Q 83.8 82 84.85 79.7 Q 85.9 77.4 87.2 74.2 Q 88.1 72.1 88.1 70.2 Q 88.1 69 87.8 67.9 Q 87.5 66.8 87.1 65.9 Z M 204.3 63.8 L 204.3 41.4 Q 204.3 39.1 203.65 37.45 Q 203 35.8 200.9 35.3 Q 200.5 35.1 200.2 34.75 Q 199.9 34.4 199.9 33.6 Q 199.9 32.3 200.8 32.1 Q 204.3 31.3 207.75 29.95 Q 211.2 28.6 213.8 27.1 Q 214.2 26.9 214.6 26.6 Q 215 26.3 215.4 26.3 Q 215.9 26.3 216.05 26.65 Q 216.2 27 216.2 27.4 Q 216.2 28.1 215.95 30 Q 215.7 31.9 215.7 33.3 Q 215.7 33.7 215.75 34.15 Q 215.8 34.6 215.9 34.7 Q 219.3 31.5 222.95 29.7 Q 226.6 27.9 231.2 27.9 Q 236.3 27.9 239.75 31.8 Q 243.2 35.7 243.2 42.1 L 243.2 63.9 Q 243.2 65.9 244.4 66.5 Q 245.6 67.1 247.1 67.6 Q 247.9 67.9 248.6 68.35 Q 249.3 68.8 249.3 69.6 Q 249.3 70.2 248.65 70.5 Q 248 70.8 247.4 70.8 Q 245.4 70.8 243.9 70.65 Q 242.4 70.5 240.95 70.4 Q 239.5 70.3 237.7 70.3 Q 236 70.3 234.5 70.4 Q 233 70.5 231.45 70.65 Q 229.9 70.8 227.9 70.8 Q 227.4 70.8 226.8 70.5 Q 226.2 70.2 226.2 69.6 Q 226.2 68.8 226.8 68.35 Q 227.4 67.9 228.2 67.6 Q 229.7 67.1 230.85 66.5 Q 232 65.9 232 63.9 L 232 43.6 Q 232 39.6 230.05 37.3 Q 228.1 35 224.8 35 Q 222.1 35 220.1 35.8 Q 218.1 36.6 216.2 38.1 Q 215.8 38.4 215.6 38.95 Q 215.4 39.5 215.4 40.1 L 215.4 63.9 Q 215.4 65.9 216.55 66.55 Q 217.7 67.2 219.2 67.6 Q 221.3 68.3 221.3 69.5 Q 221.3 70.1 220.8 70.45 Q 220.3 70.8 219.5 70.8 Q 217.5 70.8 216 70.65 Q 214.5 70.5 213.1 70.4 Q 211.7 70.3 209.9 70.3 Q 208.2 70.3 206.7 70.4 Q 205.2 70.5 203.6 70.65 Q 202 70.8 200 70.8 Q 199.2 70.8 198.6 70.45 Q 198 70.1 198 69.5 Q 198 68.7 198.65 68.3 Q 199.3 67.9 200.3 67.6 Q 201.8 67.2 203.05 66.5 Q 204.3 65.8 204.3 63.8 Z M 149.2 65.4 L 149.2 64.8 Q 147.3 67.6 143.85 69.75 Q 140.4 71.9 136 71.9 Q 130.4 71.9 126.1 69.05 Q 121.8 66.2 119.35 61.45 Q 116.9 56.7 116.9 51.2 Q 116.9 44.7 119.85 39.45 Q 122.8 34.2 128.1 31.15 Q 133.4 28.1 140.4 28.1 Q 142.1 28.1 143.85 28.35 Q 145.6 28.6 146.9 29 Q 148.1 29.3 148.2 29.3 Q 148.7 29.3 148.7 27.6 L 148.7 15 Q 148.7 11.2 147.7 9.7 Q 146.7 8.2 144.5 7.8 Q 143.4 7.5 143.4 6.3 Q 143.4 5.2 144.4 4.9 Q 148.3 4 151.75 2.85 Q 155.2 1.7 157.4 0.7 Q 158.4 0.3 158.85 0.15 Q 159.3 0 159.4 0 Q 160.4 0 160.4 1 L 160.3 2.2 Q 160.2 3.4 160.05 5.45 Q 159.9 7.5 159.8 10.1 L 159.5 58.8 Q 159.5 62.2 160 63.7 Q 160.5 65.2 161.7 65.2 Q 162.2 65.2 163 65.15 Q 163.8 65.1 165.8 64.9 Q 167.3 64.8 167.3 65.9 Q 167.3 66.7 166.75 67.45 Q 166.2 68.2 165.7 68.2 Q 162.3 68.6 158.8 69.5 Q 155.3 70.4 151.7 71.8 L 150.65 72.25 Q 150.3 72.4 150 72.4 Q 149.7 72.4 149.15 71.85 Q 148.6 71.3 148.6 71 Q 148.8 69.6 148.95 68.05 Q 149.1 66.5 149.2 65.4 Z M 352.4 71.9 Q 360.1 71.9 364.3 68.35 Q 368.5 64.8 368.5 58.7 Q 368.5 53.6 365.7 50.55 Q 362.9 47.5 356.6 44.1 Q 353.3 42.3 351.55 40.6 Q 349.8 38.9 349.8 36.8 Q 349.8 34.2 351.65 32.75 Q 353.5 31.3 355.8 31.3 Q 358.4 31.3 360.4 33.2 Q 362.4 35.1 363.7 38.8 Q 363.9 39.2 364.6 39.6 Q 365.3 40 366 40 Q 367.5 40 367.5 39.1 Q 367.5 36.2 367 33.55 Q 366.5 30.9 365.7 29.9 Q 364.7 29.2 362.15 28.5 Q 359.6 27.8 356.4 27.8 Q 351.9 27.8 348.45 29.4 Q 345 31 343.1 33.8 Q 341.2 36.6 341.2 40.3 Q 341.2 43.6 342.6 46.05 Q 344 48.5 346.45 50.4 Q 348.9 52.3 352 54 Q 355.4 55.9 357.35 57.7 Q 359.3 59.5 359.3 62.2 Q 359.3 64.5 357.7 66.25 Q 356.1 68 353.3 68 Q 350 68 347.4 65.35 Q 344.8 62.7 343.1 58.3 Q 342.9 57.8 342.4 57.4 Q 341.9 57 341.2 57 Q 339.5 57 339.5 58.2 Q 339.5 61.1 339.85 64.1 Q 340.2 67.1 340.9 68.5 Q 343.3 70.2 346.25 71.05 Q 349.2 71.9 352.4 71.9 Z M 259.8 59.4 L 259.8 36.3 Q 259.8 35.5 259.15 35.1 Q 258.5 34.7 256.6 34.6 L 255.5 34.6 Q 254.9 34.6 254.5 33.65 Q 254.1 32.7 254.1 31.8 Q 254.1 31.6 254.25 31.25 Q 254.4 30.9 254.7 30.8 Q 257 29.8 259.4 28.05 Q 261.8 26.3 263.9 24.45 Q 266 22.6 267.4 21.3 Q 268.1 20.8 268.55 20.4 Q 269 20 269.6 20 Q 270.4 20 270.85 20.35 Q 271.3 20.7 271.1 21.7 L 270.5 27.2 Q 270.4 28.4 271.05 28.8 Q 271.7 29.2 272.9 29.2 L 284.7 29.2 Q 285 29.2 285.3 29.9 Q 285.6 30.6 285.6 31.3 Q 285.6 32.6 285.25 33.7 Q 284.9 34.8 284.4 34.8 L 274.9 34.8 Q 272.6 34.8 271.75 35.3 Q 270.9 35.8 270.9 37.4 L 270.9 56.6 Q 270.9 61 272.6 63.25 Q 274.3 65.5 277.4 65.5 Q 280.2 65.5 281.65 65 Q 283.1 64.5 284.3 63.8 Q 284.6 63.6 284.8 63.6 Q 285.3 63.6 285.55 64.2 Q 285.8 64.8 285.8 65.5 Q 285.8 66 283.85 67.6 Q 281.9 69.2 278.75 70.55 Q 275.6 71.9 272 71.9 Q 266 71.9 262.9 68.7 Q 259.8 65.5 259.8 59.4 Z M 310.2 71.9 Q 304.3 71.9 299.6 69.25 Q 294.9 66.6 292.1 61.9 Q 289.3 57.2 289.3 51.3 Q 289.3 46.7 291.1 42.5 Q 292.9 38.3 296 35 Q 299.1 31.7 303.3 29.75 Q 307.5 27.8 312.3 27.8 Q 318.4 27.8 323.25 30.65 Q 328.1 33.5 331 38.2 Q 333.9 42.9 333.9 48.5 Q 333.9 54.7 331.25 60.05 Q 328.6 65.4 323.35 68.65 Q 318.1 71.9 310.2 71.9 Z M 176.6 64 L 176.6 42.3 Q 176.6 39.1 175.6 37.5 Q 174.6 35.9 172.2 35.5 Q 171.7 35.4 171.4 34.95 Q 171.1 34.5 171.1 33.9 Q 171.1 32.5 172.2 32.4 Q 177 31.4 180.55 29.65 Q 184.1 27.9 186 26.9 Q 187.4 26.2 187.8 26.2 Q 188.9 26.2 188.9 27.2 Q 188.8 28.6 188.5 31.05 Q 188.2 33.5 187.95 36.25 Q 187.7 39 187.7 41.4 L 187.7 63.9 Q 187.7 65.4 188.8 66.2 Q 189.9 67 192.3 67.7 Q 193.1 68 193.7 68.35 Q 194.3 68.7 194.3 69.5 Q 194.3 70.7 192.6 70.7 Q 190.7 70.7 188.95 70.6 Q 187.2 70.5 185.55 70.4 Q 183.9 70.3 182.1 70.3 Q 180.4 70.3 178.8 70.4 Q 177.2 70.5 175.55 70.65 Q 173.9 70.8 171.9 70.8 Q 171.1 70.8 170.6 70.45 Q 170.1 70.1 170.1 69.5 Q 170.1 68.7 170.7 68.3 Q 171.3 67.9 172.1 67.7 Q 174.5 67.1 175.55 66.4 Q 176.6 65.7 176.6 64 Z M 312.2 68 Q 309.1 68 306.65 65.2 Q 304.2 62.4 302.75 58 Q 301.3 53.6 301.3 48.8 Q 301.3 44 301.95 40.35 Q 302.6 36.7 304.4 34.6 Q 305.7 33.1 307.25 32.45 Q 308.8 31.8 310.7 31.8 Q 314.1 31.8 316.6 34.4 Q 319.1 37 320.5 41.3 Q 321.9 45.6 321.9 50.9 Q 321.9 54.9 321.45 58.35 Q 321 61.8 319.8 63.9 Q 318.6 66 316.65 67 Q 314.7 68 312.2 68 Z M 148.7 62 Q 147.1 63.7 144.8 64.65 Q 142.5 65.6 140.6 65.6 Q 138.7 65.6 136.6 64.65 Q 134.5 63.7 132.7 61.7 Q 130.9 59.7 129.75 56.45 Q 128.6 53.2 128.6 48.6 Q 128.6 43 130.15 39.4 Q 131.7 35.8 134 34.05 Q 136.3 32.3 138.7 32.3 Q 141.3 32.3 143.6 33.65 Q 145.9 35 147.3 37.05 Q 148.7 39.1 148.7 41.2 L 148.7 62 Z M 181.9 20.4 Q 179 20.4 177 18.4 Q 175 16.4 175 13.6 Q 175 10.5 177 8.5 Q 179 6.5 181.9 6.5 Q 184.9 6.5 186.9 8.5 Q 188.9 10.5 188.9 13.6 Q 188.9 16.4 186.9 18.4 Q 184.9 20.4 181.9 20.4 Z" vector-effect="non-scaling-stroke"/></g></svg>